<?xml version="1.0" encoding="UTF-8" standalone="no"?>
<!-- Created with Inkscape (http://www.inkscape.org/) -->

<svg
   xmlns:dc="http://purl.org/dc/elements/1.1/"
   xmlns:cc="http://creativecommons.org/ns#"
   xmlns:rdf="http://www.w3.org/1999/02/22-rdf-syntax-ns#"
   xmlns:svg="http://www.w3.org/2000/svg"
   xmlns="http://www.w3.org/2000/svg"
   xmlns:sodipodi="http://sodipodi.sourceforge.net/DTD/sodipodi-0.dtd"
   xmlns:inkscape="http://www.inkscape.org/namespaces/inkscape"
   id="svg2985"
   version="1.1"
   inkscape:version="0.48.4 r9939"
   width="488.7375"
   height="74.875"
   xml:space="preserve"
   sodipodi:docname="U-M_2color-Horizontal.eps"><metadata
     id="metadata2991"><rdf:RDF><cc:Work
         rdf:about=""><dc:format>image/svg+xml</dc:format><dc:type
           rdf:resource="http://purl.org/dc/dcmitype/StillImage" /><dc:title></dc:title></cc:Work></rdf:RDF></metadata><defs
     id="defs2989"><clipPath
       clipPathUnits="userSpaceOnUse"
       id="clipPath3001"><path
         d="m 0,0 3909.92,0 0,599 L 0,599 0,0 z"
         id="path3003" /></clipPath></defs><sodipodi:namedview
     pagecolor="#ffffff"
     bordercolor="#666666"
     borderopacity="1"
     objecttolerance="10"
     gridtolerance="10"
     guidetolerance="10"
     inkscape:pageopacity="0"
     inkscape:pageshadow="2"
     inkscape:window-width="1920"
     inkscape:window-height="1018"
     id="namedview2987"
     showgrid="false"
     inkscape:zoom="3.6011152"
     inkscape:cx="244.36874"
     inkscape:cy="37.4375"
     inkscape:window-x="-8"
     inkscape:window-y="-8"
     inkscape:window-maximized="1"
     inkscape:current-layer="g2993" /><g
     id="g2993"
     inkscape:groupmode="layer"
     inkscape:label="ink_ext_XXXXXX"
     transform="matrix(1.25,0,0,-1.25,0,74.875)"><g
       id="g2995"
       transform="scale(0.1,0.1)"><g
         id="g2997"><g
           id="g2999"
           clip-path="url(#clipPath3001)"><path
             d="m 0,0 3909.92,0 0,599.023 L 0,599.023 0,0 z"
             style="fill:#0e2b58;fill-opacity:1;fill-rule:nonzero;stroke:none"
             id="path3005" /><path
             d="m 3539.21,350.586 -24.38,-68.731 47.65,0 -23.27,68.731 z m 14.83,-133.086 0,8.906 c 11.28,0.703 19.96,1.641 19.96,10.821 0,3.281 -0.93,6.796 -1.87,9.843 l -4.98,16.934 -58.45,0 -5.15,-14.336 c -1.17,-3.535 -2.1,-6.816 -2.1,-10.332 0,-11.758 12.44,-12.461 22.53,-12.93 l 0,-8.906 -68.34,0 0,8.906 c 17.39,0.703 23.02,4.239 29.36,21.621 l 44.85,123.047 -2.57,4.004 c 19.25,6.328 24.65,9.149 32.88,15.254 3.28,-11.269 3.75,-12.676 7.51,-24.414 l 36.64,-112.734 c 6.57,-19.961 9.63,-24.903 27.23,-26.778 l 0,-8.906 -77.5,0"
             style="fill:#ffffff;fill-opacity:1;fill-rule:nonzero;stroke:none"
             id="path3007" /><path
             d="m 3024.55,254.355 c -7.36,-11.972 -24.99,-41.328 -70.72,-41.328 -49.97,0 -82.33,36.875 -82.33,85.254 0,44.844 27.45,89.004 83.44,89.004 29.45,0 45.07,-12.441 54.67,-19.961 l 11.38,10.332 0.89,-50.254 -7.37,-1.418 c -2.9,9.641 -7.14,17.375 -17.84,29.133 -5.14,5.391 -17.4,16.192 -34.8,16.192 -29.9,0 -53.55,-24.414 -53.55,-67.403 0,-36.406 19.4,-70.683 57.77,-70.683 29.01,0 39.9,16.172 48.6,28.613 l 9.86,-7.481"
             style="fill:#ffffff;fill-opacity:1;fill-rule:nonzero;stroke:none"
             id="path3009" /><path
             d="m 3036.81,217.5 0,8.906 c 18.79,1.641 19.02,5.645 19.02,21.621 0.23,5.86 0.23,11.739 0.23,17.598 l 0,69.512 c 0,10.82 0,21.621 -0.7,26.777 -0.95,9.863 -5.64,11.289 -18.55,12.461 l 0,8.918 70.98,0 0,-8.918 c -13.86,-1.406 -19.02,-1.895 -20.67,-11.047 -1.17,-5.398 -1.41,-17.625 -1.41,-27.469 l 0,-22.91 c 14.32,-0.703 24.31,-1.172 38.17,-1.172 14.08,0 25.24,0.469 39.34,1.172 l 0,27.832 c -0.24,30.293 -0.47,31.465 -23.02,33.594 l 0,8.918 71.89,0 0,-8.918 c -19.26,-2.363 -19.26,-2.598 -19.26,-34.062 l 0,-69.981 c 0,-6.582 0.24,-27.48 0.94,-32.422 1.18,-8.672 6.11,-10.332 18.32,-11.504 l 0,-8.906 -71.89,0 0,8.906 c 16.68,1.875 21.14,2.344 22.55,13.867 0.47,4.688 0.47,11.036 0.47,23.008 l 0,30.41 c -13.15,0.469 -24.08,1.172 -37.7,1.172 -14.33,0 -25.49,-0.449 -39.81,-1.172 l 0,-30.41 c 0.24,-34.531 0.71,-34.531 22.08,-36.875 l 0,-8.906 -70.98,0"
             style="fill:#ffffff;fill-opacity:1;fill-rule:nonzero;stroke:none"
             id="path3011" /><path
             d="m 3225.78,217.5 0,8.906 c 16.21,2.129 19.5,4.004 19.73,21.387 l 0,88.301 c -0.23,34.511 -0.23,35.457 -19.73,38.281 l 0,8.918 68.91,0 0,-8.918 c -19.49,-1.895 -19.49,-2.824 -19.49,-38.281 l 0,-66.934 c 0,-5.879 0.23,-24.433 0.7,-29.355 1.17,-10.117 5.87,-12.461 18.79,-13.399 l 0,-8.906 -68.91,0"
             style="fill:#ffffff;fill-opacity:1;fill-rule:nonzero;stroke:none"
             id="path3013" /><path
             d="m 2800.37,217.5 0,8.906 c 16.21,2.129 19.5,4.004 19.74,21.387 l 0,88.301 c -0.24,34.511 -0.24,35.457 -19.74,38.281 l 0,8.918 68.86,0 0,-8.918 c -19.5,-1.895 -19.5,-2.824 -19.5,-38.281 l 0,-66.934 c 0,-5.879 0.23,-24.433 0.71,-29.355 1.17,-10.117 5.87,-12.461 18.79,-13.399 l 0,-8.906 -68.86,0"
             style="fill:#ffffff;fill-opacity:1;fill-rule:nonzero;stroke:none"
             id="path3015" /><path
             d="m 2711.56,217.5 0,8.906 c 20.9,1.407 20.9,2.344 21.14,33.125 l 0,83.379 -58.01,-127.539 -14.55,0 -53.26,129.199 -1.25,-97.5 c 0,-16.191 1.89,-19.257 19.52,-20.664 l 0,-8.906 -57.55,0 0,8.906 c 13.39,0.703 18.55,2.578 19.49,13.867 0.47,4.454 1.17,18.321 1.42,27.481 l 2.34,69.512 c 0.23,5.39 0.23,13.379 0.23,19.257 0,16.446 -3.29,17.618 -18.07,17.852 l 0,8.918 52.14,0 51.66,-125.871 56.82,125.871 50.49,0 0,-9.867 c -19.72,-1.18 -19.95,-3.289 -19.72,-29.129 l 0,-68.32 c 0,-11.289 0.24,-25.372 0.95,-33.829 0.93,-12.207 5.63,-14.57 18.77,-15.742 l 0,-8.906 -72.56,0"
             style="fill:#ffffff;fill-opacity:1;fill-rule:nonzero;stroke:none"
             id="path3017" /><path
             d="m 3626.69,217.5 0,8.906 c 13.63,0.703 18.8,0.938 20.66,10.352 2.36,11.035 3.06,109.433 3.3,126.57 -9.16,8.449 -12.92,10.098 -23.96,11.047 l 0,8.918 49.78,0 c 13.87,-19.738 16.92,-24.191 41.34,-54.484 l 46.26,-57.305 0,74.199 c -0.23,26.309 -0.93,27.723 -27.23,28.672 l 0,8.918 65.29,0 0,-8.918 c -18.08,-0.234 -19.74,-4.004 -19.96,-31.008 l -2.36,-127.996 -9.86,0 -14.79,18.555 c -7.52,9.394 -15.03,18.789 -22.55,27.949 l -65.52,80.82 0,-85.976 c 0,-26.778 1.88,-27.735 27.25,-30.313 l 0,-8.906 -67.65,0"
             style="fill:#ffffff;fill-opacity:1;fill-rule:nonzero;stroke:none"
             id="path3019" /><path
             d="m 2285.72,228.535 c 9.36,0.274 22.57,4.903 32.81,20.508 11.72,17.969 14.13,34.492 13.46,56.094 -0.65,21.367 -6.6,39.746 -18.81,52.754 -5.33,5.683 -15.84,14.082 -29.65,13.652 -13.84,0 -24.07,-8.711 -29.23,-14.551 -11.8,-13.359 -17.18,-31.933 -17.18,-53.32 0,-21.602 2.9,-38.047 15.17,-55.645 10.7,-15.273 24.06,-19.492 33.43,-19.492 z m 82.8,72.09 c 0,-57.305 -39.04,-87.363 -82.99,-87.363 -48.2,0 -85.89,34.765 -85.89,87.597 0,45.332 30.34,86.192 83.66,85.957 50.2,-0.234 85.22,-35.937 85.22,-86.191"
             style="fill:#ffffff;fill-opacity:1;fill-rule:nonzero;stroke:none"
             id="path3021" /><path
             d="m 2389.24,248.027 c 0.23,3.985 0.47,23.946 0.47,28.399 l 0.04,58.242 c 0,6.582 -0.25,24.902 -1.42,30.059 -1.65,7.753 -6.81,8.476 -18.78,9.648 l 0,8.918 121.63,0 2.59,-40.637 -8.22,0 c -4.35,25.957 -14.8,25.84 -47.2,25.84 -10.58,0 -13.87,-0.234 -19.74,-0.949 l -0.03,-57.41 21.84,0 c 20.21,0 25.13,1.758 26.07,19.609 l 7.99,0 0,-54.726 -7.99,0 c -1.18,18.554 -11.03,20.312 -29.59,20.312 l -18.32,0 -0.12,-47.305 c 0.48,-18.086 2.59,-19.746 19.73,-21.367 l 0,-9.16 -68.67,0 0,9.16 c 17.14,1.621 19.25,3.281 19.72,21.367"
             style="fill:#ffffff;fill-opacity:1;fill-rule:nonzero;stroke:none"
             id="path3023" /><path
             d="m 1068.76,218.652 0,8.926 c 16.21,2.11 19.5,3.985 19.73,21.367 l 0,88.321 c -0.23,34.511 -0.23,35.457 -19.73,38.281 l 0,8.926 68.88,0 0,-8.926 c -19.5,-1.895 -19.5,-2.824 -19.5,-38.281 l 0,-66.934 c 0,-5.879 0.24,-24.434 0.71,-29.355 1.17,-10.098 5.88,-12.461 18.79,-13.399 l 0,-8.926 -68.88,0"
             style="fill:#ffffff;fill-opacity:1;fill-rule:nonzero;stroke:none"
             id="path3025" /><path
             d="m 1721.11,218.652 0,8.926 c 16.19,2.11 19.49,3.985 19.72,21.367 l 0,88.321 c -0.23,34.511 -0.23,35.457 -19.72,38.281 l 0,8.926 68.83,0 0,-8.926 c -19.49,-1.895 -19.49,-2.824 -19.49,-38.281 l 0,-66.934 c 0,-5.879 0.22,-24.434 0.7,-29.355 1.17,-10.098 5.87,-12.461 18.79,-13.399 l 0,-8.926 -68.83,0"
             style="fill:#ffffff;fill-opacity:1;fill-rule:nonzero;stroke:none"
             id="path3027" /><path
             d="m 882.523,218.652 0,8.926 c 13.622,0.703 18.786,0.938 20.668,10.332 2.344,11.035 3.055,109.453 3.289,126.582 -9.167,8.457 -12.917,10.117 -23.957,11.055 l 0,8.926 49.79,0 c 13.847,-19.746 16.906,-24.2 41.332,-54.493 l 46.255,-57.324 0,74.239 c -0.23,26.289 -0.93,27.714 -27.232,28.652 l 0,8.926 65.292,0 0,-8.926 c -18.09,-0.246 -19.73,-4.004 -19.97,-31.004 l -2.35,-128 -9.86,0 -14.79,18.555 c -7.52,9.394 -15.033,18.789 -22.552,27.949 l -65.524,80.82 0,-85.976 c 0,-26.778 1.883,-27.735 27.242,-30.313 l 0,-8.926 -67.633,0"
             style="fill:#ffffff;fill-opacity:1;fill-rule:nonzero;stroke:none"
             id="path3029" /><path
             d="m 1599.62,270.332 8.45,0.918 c 9.16,-26.992 24.42,-41.562 49.31,-41.562 17.62,0 33.12,7.519 33.12,25.371 0,18.789 -18.09,26.308 -26.07,29.589 -6.57,2.598 -13.61,4.707 -20.19,7.286 -13.62,4.941 -39.22,15.507 -39.22,47.675 0,30.996 24.42,48.379 52.84,48.379 11.03,0 23.96,-2.355 38.04,-11.269 l 10.1,7.265 5.4,-49.316 -8.22,-1.641 c -2.81,10.801 -4.93,15.86 -11.5,24.551 -7.99,10.332 -19.27,15.137 -32.41,15.137 -17.62,0 -27.95,-8.457 -27.95,-21.602 0,-19.726 19.5,-26.3 38.05,-32.402 9.39,-3.066 17.13,-5.645 23.95,-9.629 13.15,-7.754 23.96,-22.305 23.96,-42.266 0,-28.652 -23.49,-52.382 -58.48,-52.382 -22.55,0 -36.4,8.925 -42.98,13.144 l -13.82,10.098 -2.38,32.656"
             style="fill:#ffffff;fill-opacity:1;fill-rule:nonzero;stroke:none"
             id="path3031" /><path
             d="m 1841.19,218.652 0,7.051 c 15.27,0.235 19.49,5.86 19.49,19.024 l 0,122.148 -20.66,0 c -18.79,0 -31.23,0.711 -32.65,-28.867 l -8.69,0 1.42,46.484 150.77,0 1.41,-46.484 -8.69,0 c -1.41,29.578 -13.85,28.867 -32.64,28.867 l -20.68,0 0,-122.148 c 0,-13.164 4.24,-18.789 19.5,-19.024 l 0.01,-7.051 -68.59,0"
             style="fill:#ffffff;fill-opacity:1;fill-rule:nonzero;stroke:none"
             id="path3033" /><path
             d="m 771.344,384.473 0,-8.926 c -22.074,-1.652 -22.074,-2.363 -22.313,-37.578 l 0,-38.985 c 0,-20.195 0.395,-37.539 11.035,-53.086 8.489,-12.382 22.903,-13.964 30.184,-13.964 23.719,0 36.754,12.324 42.387,31.816 4.699,15.508 4.929,44.629 4.929,63.887 0,6.093 0,25.84 -0.23,31.23 -0.941,15.028 -8.691,15.508 -23.488,16.68 l 0,8.926 63.179,0 0,-8.926 c -15.504,0.234 -18.785,-3.301 -19.726,-19.746 -0.238,-3.985 -2.113,-50.02 -2.352,-57.063 -0.469,-12.664 -1.172,-25.125 -3.992,-37.097 -11.273,-44.629 -54.719,-46.973 -66.227,-46.973 -9.16,0 -27.945,1.406 -43.441,11.738 -24.668,16.68 -24.902,41.582 -24.902,68.34 l 0,37.578 c -0.235,17.852 -0.235,25.84 -0.703,30.059 -1.407,10.34 -6.575,12.461 -19.024,13.164 l 0,8.926 74.684,0"
             style="fill:#ffffff;fill-opacity:1;fill-rule:nonzero;stroke:none"
             id="path3035" /><path
             d="m 1312.16,384.473 0,-8.926 c -15.97,-2.363 -18.09,-6.817 -31.71,-39.699 l -50.49,-120.477 -8.92,0 -45.33,122.352 c -11.28,31.476 -12.68,35.226 -29.35,37.824 l 0,8.926 78.67,0 0,-8.926 c -13.39,-0.481 -22.08,-0.938 -22.08,-10.578 0,-4.696 1.18,-8.68 5.63,-22.547 l 28.9,-84.317 33.81,87.129 c 2.12,5.879 4.94,13.399 4.94,17.618 0,11.992 -11.75,12.449 -22.08,12.695 l 0,8.926 58.01,0"
             style="fill:#ffffff;fill-opacity:1;fill-rule:nonzero;stroke:none"
             id="path3037" /><path
             d="m 2004.95,218.652 0,8.926 c 12.91,1.406 17.84,1.895 21.13,5.176 3.76,3.769 3.76,7.969 4,26.074 l 0,29.121 -44.15,68.34 c -11.98,17.852 -12.21,18.32 -28.2,19.258 l 0,9.148 86.44,0 0,-9.148 c -17.39,-0.481 -25.14,-0.938 -25.14,-8.926 0,-4.473 3.06,-9.629 7.28,-16.68 l 25.38,-41.523 23.47,41.289 c 4.22,8.223 6.58,13.145 6.58,16.914 0,7.988 -6.82,8.223 -18.32,8.926 l 0,9.148 64.82,0 0,-9.148 c -16.67,-0.481 -21.61,-5.41 -40.62,-36.406 l -25.84,-43.223 0,-34.512 c 0,-30.058 0.24,-32.422 24.89,-33.828 l 0,-8.926 -81.72,0"
             style="fill:#ffffff;fill-opacity:1;fill-rule:nonzero;stroke:none"
             id="path3039" /><path
             d="m 1312.2,218.652 0,9.161 c 17.15,1.66 19.26,3.3 19.73,21.367 0.23,4.004 0.46,23.965 0.46,28.418 l 0,58.281 c 0,6.582 -0.23,24.902 -1.4,30.059 -1.64,7.753 -6.81,8.476 -18.79,9.636 l 0,8.918 118.13,0 0.94,-39.453 -7.51,0 c -3.76,22.547 -13.86,24.668 -42.04,24.668 l -20.44,0 0,-58.398 18.09,0 c 21.37,0 24.42,4.824 26.07,19.609 l 7.98,0 0,-54.727 -7.98,0 c 0,18.555 -5.87,20.313 -26.3,20.313 l -17.86,0 0,-46.367 c 0,-10.801 4.47,-16.68 26.54,-16.68 23.96,0 40.63,-1.406 46.27,28.184 l 7.99,0 c -1.42,-11.27 -3.53,-30.996 -3.53,-42.989 l -126.35,0"
             style="fill:#ffffff;fill-opacity:1;fill-rule:nonzero;stroke:none"
             id="path3041" /><path
             d="m 3463.01,290.781 0,-8.926 c -15,-0.937 -15,-5.175 -15.43,-36.64 l 0,-12.442 c -12.89,-7.988 -31.29,-19.492 -63.84,-19.492 -57.06,0 -84.33,43.203 -84.33,86.66 0,53.067 35.94,87.598 80.96,87.598 28.33,0 44.62,-10.566 58.15,-18.789 l 8.66,9.863 1.27,-51.894 -6.76,-1.172 c -3.39,9.851 -8.47,21.25 -20.94,33.691 -5.49,5.399 -16.06,12.325 -32.76,12.325 -28.96,0 -53.07,-24.415 -53.07,-72.09 0,-38.047 18.81,-70.684 51.15,-70.684 18.38,0 27.9,12.91 28.74,13.848 2.96,4.453 3.65,8.437 3.38,15.742 -0.74,21.113 -3.59,21.601 -21.98,23.476 l 0,8.926 66.8,0"
             style="fill:#ffffff;fill-opacity:1;fill-rule:nonzero;stroke:none"
             id="path3043" /><path
             d="m 1499.91,271.465 c 0.24,-38.047 0.24,-43.164 20.2,-43.633 l 0,-9.16 -69.23,0 0,9.16 c 17.85,1.406 19.73,4.238 19.96,22.07 0.23,6.817 0.23,14.532 0.23,21.328 l 0,60 c 0,19.969 -0.23,26.993 -0.93,32.383 -1.18,9.16 -5.64,10.821 -19.26,11.981 l 0,8.918 75.12,-0.293 c 40.87,0 53.78,-19.473 53.78,-42.481 0,-15.976 -9.86,-36.758 -32.64,-43.808 l 29.35,-51.055 c 10.58,-19.512 16.22,-23.965 29.59,-25.84 l 0,-5.644 c -3.52,-0.235 -7.04,-0.469 -10.8,-0.469 -31.23,0 -44.15,10.801 -57.3,38.75 l -9.16,19.492 c -9.86,20.899 -13.16,19.609 -28.89,19.844 l -0.02,-21.543 z m 0.02,36.101 c 4.46,-0.925 10.81,-1.628 15.51,-1.648 18.86,-0.039 33.12,14.746 33.81,28.008 1.01,19.258 -8.68,35.918 -39.21,35.918 -4.23,0 -6.82,-0.254 -10.11,-0.949 l 0,-61.329"
             style="fill:#ffffff;fill-opacity:1;fill-rule:nonzero;stroke:none"
             id="path3045" /><path
             d="m 375.242,174.668 -109.168,150.086 0,-109.168 43.672,0 0,-107.793 -201.953,0 0,107.793 40.93,0 0,167.84 -40.93,0 0,107.804 158.633,0 109.351,-151.464 109.559,151.464 158.629,0 0,-107.804 -40.942,0 0,-167.84 40.942,0 0,-107.793 -201.949,0 0,107.793 43.66,0 0,109.168 -110.434,-150.086"
             style="fill:#fccb06;fill-opacity:1;fill-rule:nonzero;stroke:none"
             id="path3047" /></g></g></g></g></svg>